<?xml version="1.0" encoding="UTF-8"?>
<mxfile host="app.diagrams.net" modified="2025-10-06T21:00:00.000Z" agent="draw.io" etag="ABC123" version="22.1.11" type="device">
  <diagram name="Arquitetura PokeAPI" id="arquitetura-pokeapi">
    <mxGraphModel dx="1422" dy="754" grid="1" gridSize="10" guides="1" tooltips="1" connect="1" arrows="1" fold="1" page="1" pageScale="1" pageWidth="1600" pageHeight="900" math="0" shadow="0">
      <root>
        <mxCell id="0"/>
        <mxCell id="1" parent="0"/>

        <!-- Title -->
        <mxCell id="title" value="Arquitetura do Sistema PokeAPI - Batalhas PokÃ©mon" style="text;html=1;strokeColor=none;fillColor=none;align=center;verticalAlign=middle;whiteSpace=wrap;rounded=0;fontSize=20;fontStyle=1;fontColor=#333333;" vertex="1" parent="1">
          <mxGeometry x="500" y="20" width="600" height="40" as="geometry"/>
        </mxCell>

        <!-- Frontend Group -->
        <mxCell id="frontend-container" value="Frontend" style="swimlane;whiteSpace=wrap;html=1;fillColor=#E1F5FE;strokeColor=#01579B;fontStyle=1;fontSize=14;startSize=30;" vertex="1" parent="1">
          <mxGeometry x="80" y="80" width="240" height="120" as="geometry"/>
        </mxCell>
        <mxCell id="browser" value="Navegador" style="rounded=1;whiteSpace=wrap;html=1;fillColor=#BBDEFB;strokeColor=#1976D2;fontSize=12;" vertex="1" parent="frontend-container">
          <mxGeometry x="20" y="40" width="90" height="30" as="geometry"/>
        </mxCell>
        <mxCell id="web-interface" value="Interface Web&#xa;(Thymeleaf)" style="rounded=1;whiteSpace=wrap;html=1;fillColor=#BBDEFB;strokeColor=#1976D2;fontSize=12;" vertex="1" parent="frontend-container">
          <mxGeometry x="130" y="40" width="90" height="40" as="geometry"/>
        </mxCell>

        <!-- API Layer Group -->
        <mxCell id="api-container" value="API Layer" style="swimlane;whiteSpace=wrap;html=1;fillColor=#F3E5F5;strokeColor=#7B1FA2;fontStyle=1;fontSize=14;startSize=30;" vertex="1" parent="1">
          <mxGeometry x="400" y="80" width="380" height="120" as="geometry"/>
        </mxCell>
        <mxCell id="web-controller" value="WebController" style="rounded=1;whiteSpace=wrap;html=1;fillColor=#E1BEE7;strokeColor=#7B1FA2;fontSize=12;" vertex="1" parent="api-container">
          <mxGeometry x="20" y="40" width="100" height="30" as="geometry"/>
        </mxCell>
        <mxCell id="battle-controller" value="BattleController" style="rounded=1;whiteSpace=wrap;html=1;fillColor=#E1BEE7;strokeColor=#7B1FA2;fontSize=12;" vertex="1" parent="api-container">
          <mxGeometry x="140" y="40" width="100" height="30" as="geometry"/>
        </mxCell>
        <mxCell id="pokemon-controller" value="PokemonController" style="rounded=1;whiteSpace=wrap;html=1;fillColor=#E1BEE7;strokeColor=#7B1FA2;fontSize=12;" vertex="1" parent="api-container">
          <mxGeometry x="260" y="40" width="100" height="30" as="geometry"/>
        </mxCell>

        <!-- Service Layer Group -->
        <mxCell id="service-container" value="Service Layer" style="swimlane;whiteSpace=wrap;html=1;fillColor=#E8F5E8;strokeColor=#2E7D32;fontStyle=1;fontSize=14;startSize=30;" vertex="1" parent="1">
          <mxGeometry x="400" y="260" width="380" height="120" as="geometry"/>
        </mxCell>
        <mxCell id="battle-service" value="BattleService" style="rounded=1;whiteSpace=wrap;html=1;fillColor=#C8E6C9;strokeColor=#2E7D32;fontSize=12;" vertex="1" parent="service-container">
          <mxGeometry x="20" y="40" width="100" height="30" as="geometry"/>
        </mxCell>
        <mxCell id="pokemon-service" value="PokemonService" style="rounded=1;whiteSpace=wrap;html=1;fillColor=#C8E6C9;strokeColor=#2E7D32;fontSize=12;" vertex="1" parent="service-container">
          <mxGeometry x="140" y="40" width="100" height="30" as="geometry"/>
        </mxCell>
        <mxCell id="rest-template" value="RestTemplate" style="rounded=1;whiteSpace=wrap;html=1;fillColor=#C8E6C9;strokeColor=#2E7D32;fontSize=12;" vertex="1" parent="service-container">
          <mxGeometry x="260" y="40" width="100" height="30" as="geometry"/>
        </mxCell>

        <!-- Data Layer Group -->
        <mxCell id="data-container" value="Data Layer" style="swimlane;whiteSpace=wrap;html=1;fillColor=#FFF3E0;strokeColor=#F57C00;fontStyle=1;fontSize=14;startSize=30;" vertex="1" parent="1">
          <mxGeometry x="80" y="440" width="380" height="120" as="geometry"/>
        </mxCell>
        <mxCell id="battle-repository" value="BattleRepository" style="rounded=1;whiteSpace=wrap;html=1;fillColor=#FFE0B2;strokeColor=#F57C00;fontSize=12;" vertex="1" parent="data-container">
          <mxGeometry x="20" y="40" width="100" height="30" as="geometry"/>
        </mxCell>
        <mxCell id="pokemon-repository" value="PokemonRepository" style="rounded=1;whiteSpace=wrap;html=1;fillColor=#FFE0B2;strokeColor=#F57C00;fontSize=12;" vertex="1" parent="data-container">
          <mxGeometry x="140" y="40" width="100" height="30" as="geometry"/>
        </mxCell>
        <mxCell id="h2-database" value="H2 Database" style="shape=cylinder3;whiteSpace=wrap;html=1;boundedLbl=1;backgroundOutline=1;size=15;fillColor=#FFE0B2;strokeColor=#F57C00;fontSize=12;" vertex="1" parent="data-container">
          <mxGeometry x="280" y="35" width="80" height="40" as="geometry"/>
        </mxCell>

        <!-- External API Group -->
        <mxCell id="external-container" value="External API" style="swimlane;whiteSpace=wrap;html=1;fillColor=#FFEBEE;strokeColor=#C62828;fontStyle=1;fontSize=14;startSize=30;" vertex="1" parent="1">
          <mxGeometry x="860" y="260" width="180" height="120" as="geometry"/>
        </mxCell>
        <mxCell id="pokeapi-external" value="PokeAPI&#xa;Externa" style="rounded=1;whiteSpace=wrap;html=1;fillColor=#FFCDD2;strokeColor=#C62828;fontSize=12;" vertex="1" parent="external-container">
          <mxGeometry x="50" y="45" width="80" height="40" as="geometry"/>
        </mxCell>

        <!-- DTOs & Entities Group -->
        <mxCell id="dto-container" value="DTOs &amp; Entities" style="swimlane;whiteSpace=wrap;html=1;fillColor=#F1F8E9;strokeColor=#689F38;fontStyle=1;fontSize=14;startSize=30;" vertex="1" parent="1">
          <mxGeometry x="540" y="440" width="300" height="120" as="geometry"/>
        </mxCell>
        <mxCell id="battle-dto" value="BattleDTO" style="rounded=1;whiteSpace=wrap;html=1;fillColor=#DCEDC8;strokeColor=#689F38;fontSize=11;" vertex="1" parent="dto-container">
          <mxGeometry x="20" y="40" width="60" height="25" as="geometry"/>
        </mxCell>
        <mxCell id="pokemon-dto" value="PokemonDTO" style="rounded=1;whiteSpace=wrap;html=1;fillColor=#DCEDC8;strokeColor=#689F38;fontSize=11;" vertex="1" parent="dto-container">
          <mxGeometry x="90" y="40" width="70" height="25" as="geometry"/>
        </mxCell>
        <mxCell id="battle-entity" value="Battle Entity" style="rounded=1;whiteSpace=wrap;html=1;fillColor=#DCEDC8;strokeColor=#689F38;fontSize=11;" vertex="1" parent="dto-container">
          <mxGeometry x="20" y="75" width="70" height="25" as="geometry"/>
        </mxCell>
        <mxCell id="pokemon-entity" value="Pokemon Entity" style="rounded=1;whiteSpace=wrap;html=1;fillColor=#DCEDC8;strokeColor=#689F38;fontSize=11;" vertex="1" parent="dto-container">
          <mxGeometry x="100" y="75" width="80" height="25" as="geometry"/>
        </mxCell>

        <!-- Connections -->
        <!-- Frontend to Controllers -->
        <mxCell id="edge1" style="edgeStyle=orthogonalEdgeStyle;rounded=0;orthogonalLoop=1;jettySize=auto;html=1;strokeWidth=2;strokeColor=#333333;" edge="1" parent="1" source="browser" target="web-controller">
          <mxGeometry relative="1" as="geometry">
            <mxPoint x="145" y="135" as="sourcePoint"/>
            <mxPoint x="470" y="135" as="targetPoint"/>
          </mxGeometry>
        </mxCell>

        <mxCell id="edge2" style="edgeStyle=orthogonalEdgeStyle;rounded=0;orthogonalLoop=1;jettySize=auto;html=1;strokeWidth=2;strokeColor=#333333;" edge="1" parent="1" source="web-interface" target="battle-controller">
          <mxGeometry relative="1" as="geometry">
            <mxPoint x="255" y="140" as="sourcePoint"/>
            <mxPoint x="540" y="135" as="targetPoint"/>
          </mxGeometry>
        </mxCell>

        <mxCell id="edge3" style="edgeStyle=orthogonalEdgeStyle;rounded=0;orthogonalLoop=1;jettySize=auto;html=1;strokeWidth=2;strokeColor=#333333;" edge="1" parent="1" source="browser" target="pokemon-controller">
          <mxGeometry relative="1" as="geometry">
            <mxPoint x="165" y="125" as="sourcePoint"/>
            <mxPoint x="710" y="135" as="targetPoint"/>
            <Array as="points">
              <mxPoint x="145" y="110"/>
              <mxPoint x="710" y="110"/>
            </Array>
          </mxGeometry>
        </mxCell>

        <!-- Controllers to Services -->
        <mxCell id="edge4" style="edgeStyle=orthogonalEdgeStyle;rounded=0;orthogonalLoop=1;jettySize=auto;html=1;strokeWidth=2;strokeColor=#333333;" edge="1" parent="1" source="web-controller" target="battle-service">
          <mxGeometry relative="1" as="geometry">
            <mxPoint x="470" y="150" as="sourcePoint"/>
            <mxPoint x="470" y="300" as="targetPoint"/>
          </mxGeometry>
        </mxCell>

        <mxCell id="edge5" style="edgeStyle=orthogonalEdgeStyle;rounded=0;orthogonalLoop=1;jettySize=auto;html=1;strokeWidth=2;strokeColor=#333333;" edge="1" parent="1" source="battle-controller" target="battle-service">
          <mxGeometry relative="1" as="geometry">
            <mxPoint x="540" y="150" as="sourcePoint"/>
            <mxPoint x="470" y="300" as="targetPoint"/>
          </mxGeometry>
        </mxCell>

        <mxCell id="edge6" style="edgeStyle=orthogonalEdgeStyle;rounded=0;orthogonalLoop=1;jettySize=auto;html=1;strokeWidth=2;strokeColor=#333333;" edge="1" parent="1" source="pokemon-controller" target="pokemon-service">
          <mxGeometry relative="1" as="geometry">
            <mxPoint x="710" y="150" as="sourcePoint"/>
            <mxPoint x="580" y="300" as="targetPoint"/>
          </mxGeometry>
        </mxCell>

        <!-- Services to Repositories -->
        <mxCell id="edge7" style="edgeStyle=orthogonalEdgeStyle;rounded=0;orthogonalLoop=1;jettySize=auto;html=1;strokeWidth=2;strokeColor=#333333;" edge="1" parent="1" source="battle-service" target="battle-repository">
          <mxGeometry relative="1" as="geometry">
            <mxPoint x="470" y="350" as="sourcePoint"/>
            <mxPoint x="150" y="480" as="targetPoint"/>
            <Array as="points">
              <mxPoint x="470" y="420"/>
              <mxPoint x="150" y="420"/>
            </Array>
          </mxGeometry>
        </mxCell>

        <mxCell id="edge8" style="edgeStyle=orthogonalEdgeStyle;rounded=0;orthogonalLoop=1;jettySize=auto;html=1;strokeWidth=2;strokeColor=#333333;" edge="1" parent="1" source="pokemon-service" target="pokemon-repository">
          <mxGeometry relative="1" as="geometry">
            <mxPoint x="580" y="350" as="sourcePoint"/>
            <mxPoint x="260" y="480" as="targetPoint"/>
            <Array as="points">
              <mxPoint x="580" y="420"/>
              <mxPoint x="260" y="420"/>
            </Array>
          </mxGeometry>
        </mxCell>

        <!-- Service to External API -->
        <mxCell id="edge9" style="edgeStyle=orthogonalEdgeStyle;rounded=0;orthogonalLoop=1;jettySize=auto;html=1;strokeWidth=2;strokeColor=#333333;" edge="1" parent="1" source="rest-template" target="pokeapi-external">
          <mxGeometry relative="1" as="geometry">
            <mxPoint x="720" y="315" as="sourcePoint"/>
            <mxPoint x="910" y="315" as="targetPoint"/>
          </mxGeometry>
        </mxCell>

        <!-- Repositories to Database -->
        <mxCell id="edge10" style="edgeStyle=orthogonalEdgeStyle;rounded=0;orthogonalLoop=1;jettySize=auto;html=1;strokeWidth=2;strokeColor=#333333;" edge="1" parent="1" source="battle-repository" target="h2-database">
          <mxGeometry relative="1" as="geometry">
            <mxPoint x="150" y="500" as="sourcePoint"/>
            <mxPoint x="360" y="515" as="targetPoint"/>
          </mxGeometry>
        </mxCell>

        <mxCell id="edge11" style="edgeStyle=orthogonalEdgeStyle;rounded=0;orthogonalLoop=1;jettySize=auto;html=1;strokeWidth=2;strokeColor=#333333;" edge="1" parent="1" source="pokemon-repository" target="h2-database">
          <mxGeometry relative="1" as="geometry">
            <mxPoint x="260" y="500" as="sourcePoint"/>
            <mxPoint x="360" y="515" as="targetPoint"/>
          </mxGeometry>
        </mxCell>

        <!-- Services to DTOs (dashed lines) -->
        <mxCell id="edge12" style="edgeStyle=orthogonalEdgeStyle;rounded=0;orthogonalLoop=1;jettySize=auto;html=1;strokeWidth=1;strokeColor=#666666;dashed=1;" edge="1" parent="1" source="battle-service" target="battle-dto">
          <mxGeometry relative="1" as="geometry">
            <mxPoint x="470" y="350" as="sourcePoint"/>
            <mxPoint x="590" y="500" as="targetPoint"/>
            <Array as="points">
              <mxPoint x="470" y="400"/>
              <mxPoint x="590" y="400"/>
            </Array>
          </mxGeometry>
        </mxCell>

        <mxCell id="edge13" style="edgeStyle=orthogonalEdgeStyle;rounded=0;orthogonalLoop=1;jettySize=auto;html=1;strokeWidth=1;strokeColor=#666666;dashed=1;" edge="1" parent="1" source="pokemon-service" target="pokemon-dto">
          <mxGeometry relative="1" as="geometry">
            <mxPoint x="580" y="350" as="sourcePoint"/>
            <mxPoint x="665" y="500" as="targetPoint"/>
            <Array as="points">
              <mxPoint x="580" y="400"/>
              <mxPoint x="665" y="400"/>
            </Array>
          </mxGeometry>
        </mxCell>

        <!-- Legend -->
        <mxCell id="legend-box" value="" style="rounded=1;whiteSpace=wrap;html=1;fillColor=#F5F5F5;strokeColor=#666666;" vertex="1" parent="1">
          <mxGeometry x="80" y="600" width="200" height="80" as="geometry"/>
        </mxCell>
        <mxCell id="legend-title" value="Legenda:" style="text;html=1;align=left;verticalAlign=top;whiteSpace=wrap;rounded=0;fontSize=12;fontStyle=1;" vertex="1" parent="1">
          <mxGeometry x="90" y="610" width="60" height="20" as="geometry"/>
        </mxCell>
        <mxCell id="legend-line1" value="âââ Fluxo de dados" style="text;html=1;align=left;verticalAlign=middle;whiteSpace=wrap;rounded=0;fontSize=11;" vertex="1" parent="1">
          <mxGeometry x="90" y="630" width="150" height="15" as="geometry"/>
        </mxCell>
        <mxCell id="legend-line2" value="âââ Uso de DTOs" style="text;html=1;align=left;verticalAlign=middle;whiteSpace=wrap;rounded=0;fontSize=11;" vertex="1" parent="1">
          <mxGeometry x="90" y="650" width="150" height="15" as="geometry"/>
        </mxCell>

      </root>
    </mxGraphModel>
  </diagram>
</mxfile>

